<svg width="20" height="25" viewBox="0 0 20 25" fill="none" xmlns="http://www.w3.org/2000/svg">
<path d="M8.32002 14.46C9.67001 13.38 10.72 12.3 11.5 11.19C12.22 10.11 12.61 9.09 12.61 8.13C12.61 7.83 12.55 7.47 12.49 7.11C12.37 6.78 12.22 6.45 12.04 6.15C11.8 5.88 11.53 5.64 11.17 5.46C10.81 5.28 10.36 5.19 9.82001 5.19C7.60001 5.19 5.98002 6.54 5.02001 9.18L0.250015 6.69C0.550015 5.61 1.03001 4.65 1.69001 3.81C2.32001 2.97 3.07002 2.28 3.97002 1.68C4.81001 1.14 5.80002 0.719998 6.88002 0.419999C7.93002 0.149998 9.04002 0.0299982 10.24 0.0299982C11.47 0.0599996 12.64 0.269999 13.72 0.659999C14.77 1.08 15.7 1.62 16.48 2.34C17.26 3.06 17.86 3.93 18.31 4.92C18.73 5.94 18.94 7.08 18.91 8.28C18.85 9.18 18.7 9.99 18.4 10.77C18.07 11.58 17.65 12.33 17.17 13.05C16.66 13.8 16.09 14.49 15.43 15.15C14.77 15.84 14.05 16.47 13.33 17.07L10.57 19.32H19.84V24.45H0.910015V20.43L8.32002 14.46Z" fill="white"/>
</svg>
