<svg width="20" height="27" viewBox="0 0 20 27" fill="none" xmlns="http://www.w3.org/2000/svg">
<path d="M0.790015 6.67C1.09001 5.77 1.57001 4.93 2.20001 4.21C2.80001 3.52 3.55001 2.92 4.39002 2.44C5.20001 1.96 6.10001 1.6 7.06001 1.33C7.99002 1.09 8.95002 0.969999 9.94002 0.969999C11.2 0.969999 12.4 1.15 13.54 1.48C14.68 1.84 15.67 2.35 16.54 2.98C17.38 3.64 18.04 4.39 18.55 5.26C19.03 6.16 19.3 7.15 19.3 8.23C19.3 8.77 19.21 9.31 19.09 9.82C18.94 10.36 18.73 10.84 18.46 11.26C18.16 11.74 17.77 12.13 17.35 12.43C16.9 12.79 16.39 13.03 15.79 13.18C16.39 13.33 16.93 13.54 17.44 13.84C17.92 14.17 18.37 14.56 18.76 14.98C19.12 15.46 19.42 15.97 19.66 16.51C19.84 17.11 19.96 17.71 19.96 18.34C19.96 19.6 19.69 20.68 19.15 21.64C18.61 22.6 17.89 23.41 16.99 24.07C16.06 24.7 14.98 25.18 13.78 25.54C12.55 25.87 11.26 26.05 9.91002 26.05C8.95002 26.05 8.02001 25.93 7.06001 25.75C6.07001 25.54 5.14001 25.21 4.30001 24.79C3.40001 24.34 2.62001 23.77 1.93001 23.08C1.21001 22.36 0.640015 21.55 0.280015 20.53L5.50002 18.13C5.80002 19.03 6.34001 19.72 7.15002 20.17C7.93002 20.65 8.80002 20.89 9.79002 20.89C10.27 20.89 10.72 20.86 11.2 20.74C11.65 20.68 12.07 20.53 12.46 20.32C12.82 20.14 13.15 19.87 13.39 19.54C13.6 19.24 13.72 18.85 13.72 18.37C13.72 17.83 13.57 17.38 13.33 17.02C13.06 16.69 12.73 16.42 12.34 16.18C11.92 16 11.47 15.85 10.99 15.76C10.45 15.7 9.97002 15.64 9.49002 15.64H7.06001V11.08H9.49002C9.88001 11.08 10.3 11.05 10.72 10.96C11.14 10.9 11.53 10.78 11.89 10.57C12.22 10.39 12.49 10.15 12.73 9.82C12.94 9.52 13.06 9.1 13.06 8.59C13.06 8.17 12.97 7.81 12.79 7.48C12.58 7.18 12.31 6.94 12.01 6.73C11.68 6.55 11.32 6.4 10.93 6.28C10.51 6.19 10.09 6.13 9.67001 6.13C8.83002 6.13 8.05002 6.4 7.36002 6.88C6.64001 7.39 6.13001 8.08 5.77002 8.92L0.790015 6.67Z" fill="white"/>
</svg>
