<svg width="188" height="228" viewBox="0 0 188 228" fill="none" xmlns="http://www.w3.org/2000/svg">
<g filter="url(#filter0_d_1563_1839)">
<rect x="4" width="180" height="220" rx="10" fill="#3CB0B8"/>
</g>
<rect x="14" y="20" width="160" height="180" rx="10" fill="#323A45"/>
<circle cx="75" cy="11" r="4" fill="#434F5E"/>
<rect x="87" y="7" width="30" height="8" rx="4" fill="#434F5E"/>
<path d="M76.8864 92.0909V127H72.6591V96.5227H72.4545L63.9318 102.182V97.8864L72.6591 92.0909H76.8864ZM115.377 87.4H119.361V119.224H115.377V87.4ZM118.113 100.504H125.793V103.816H118.113V100.504ZM92.3365 126.52H121.329V129.784H92.3365V126.52ZM92.3365 116.152H96.3205V127.288H92.3365V116.152ZM87.4885 90.472H91.4245V97.72H103.665V90.472H107.552V111.976H87.4885V90.472ZM91.4245 100.84V108.76H103.665V100.84H91.4245Z" fill="white"/>
<defs>
<filter id="filter0_d_1563_1839" x="0" y="0" width="188" height="228" filterUnits="userSpaceOnUse" color-interpolation-filters="sRGB">
<feFlood flood-opacity="0" result="BackgroundImageFix"/>
<feColorMatrix in="SourceAlpha" type="matrix" values="0 0 0 0 0 0 0 0 0 0 0 0 0 0 0 0 0 0 127 0" result="hardAlpha"/>
<feOffset dy="4"/>
<feGaussianBlur stdDeviation="2"/>
<feComposite in2="hardAlpha" operator="out"/>
<feColorMatrix type="matrix" values="0 0 0 0 0 0 0 0 0 0 0 0 0 0 0 0 0 0 0.25 0"/>
<feBlend mode="normal" in2="BackgroundImageFix" result="effect1_dropShadow_1563_1839"/>
<feBlend mode="normal" in="SourceGraphic" in2="effect1_dropShadow_1563_1839" result="shape"/>
</filter>
</defs>
</svg>
