<svg width="188" height="228" viewBox="0 0 188 228" fill="none" xmlns="http://www.w3.org/2000/svg">
<g filter="url(#filter0_d_1563_1841)">
<rect x="4" width="180" height="220" rx="10" fill="#3CB0B8"/>
</g>
<rect x="14" y="20" width="160" height="180" rx="10" fill="#323A45"/>
<circle cx="75" cy="11" r="4" fill="#434F5E"/>
<rect x="87" y="7" width="30" height="8" rx="4" fill="#434F5E"/>
<path d="M72.4091 127.477C70.1591 127.477 68.1534 127.091 66.392 126.318C64.642 125.545 63.25 124.472 62.2159 123.097C61.1932 121.71 60.6364 120.102 60.5455 118.273H64.8409C64.9318 119.398 65.3182 120.369 66 121.188C66.6818 121.994 67.5739 122.619 68.6761 123.062C69.7784 123.506 71 123.727 72.3409 123.727C73.8409 123.727 75.1705 123.466 76.3295 122.943C77.4886 122.42 78.3977 121.693 79.0568 120.761C79.7159 119.83 80.0455 118.75 80.0455 117.523C80.0455 116.239 79.7273 115.108 79.0909 114.131C78.4545 113.142 77.5227 112.369 76.2955 111.812C75.0682 111.256 73.5682 110.977 71.7955 110.977H69V107.227H71.7955C73.1818 107.227 74.3977 106.977 75.4432 106.477C76.5 105.977 77.3239 105.273 77.9148 104.364C78.517 103.455 78.8182 102.386 78.8182 101.159C78.8182 99.9773 78.5568 98.9489 78.0341 98.0739C77.5114 97.1989 76.7727 96.517 75.8182 96.0284C74.875 95.5398 73.7614 95.2955 72.4773 95.2955C71.2727 95.2955 70.1364 95.517 69.0682 95.9602C68.0114 96.392 67.1477 97.0227 66.4773 97.8523C65.8068 98.6705 65.4432 99.6591 65.3864 100.818H61.2955C61.3636 98.9886 61.9148 97.3864 62.9489 96.0114C63.983 94.625 65.3352 93.5455 67.0057 92.7727C68.6875 92 70.5341 91.6136 72.5455 91.6136C74.7045 91.6136 76.5568 92.0511 78.1023 92.9261C79.6477 93.7898 80.8352 94.9318 81.6648 96.3523C82.4943 97.7727 82.9091 99.3068 82.9091 100.955C82.9091 102.92 82.392 104.597 81.358 105.983C80.3352 107.369 78.9432 108.33 77.1818 108.864V109.136C79.3864 109.5 81.108 110.437 82.3466 111.949C83.5852 113.449 84.2045 115.307 84.2045 117.523C84.2045 119.42 83.6875 121.125 82.6534 122.636C81.6307 124.136 80.233 125.318 78.4602 126.182C76.6875 127.045 74.6705 127.477 72.4091 127.477ZM119.627 87.4H123.611V119.224H119.627V87.4ZM122.363 100.504H130.043V103.816H122.363V100.504ZM96.5865 126.52H125.579V129.784H96.5865V126.52ZM96.5865 116.152H100.571V127.288H96.5865V116.152ZM91.7385 90.472H95.6745V97.72H107.915V90.472H111.802V111.976H91.7385V90.472ZM95.6745 100.84V108.76H107.915V100.84H95.6745Z" fill="white"/>
<defs>
<filter id="filter0_d_1563_1841" x="0" y="0" width="188" height="228" filterUnits="userSpaceOnUse" color-interpolation-filters="sRGB">
<feFlood flood-opacity="0" result="BackgroundImageFix"/>
<feColorMatrix in="SourceAlpha" type="matrix" values="0 0 0 0 0 0 0 0 0 0 0 0 0 0 0 0 0 0 127 0" result="hardAlpha"/>
<feOffset dy="4"/>
<feGaussianBlur stdDeviation="2"/>
<feComposite in2="hardAlpha" operator="out"/>
<feColorMatrix type="matrix" values="0 0 0 0 0 0 0 0 0 0 0 0 0 0 0 0 0 0 0.25 0"/>
<feBlend mode="normal" in2="BackgroundImageFix" result="effect1_dropShadow_1563_1841"/>
<feBlend mode="normal" in="SourceGraphic" in2="effect1_dropShadow_1563_1841" result="shape"/>
</filter>
</defs>
</svg>
