<svg width="21" height="24" viewBox="0 0 21 24" fill="none" xmlns="http://www.w3.org/2000/svg">
<mask id="mask0_2_355" style="mask-type:alpha" maskUnits="userSpaceOnUse" x="0" y="0" width="21" height="24">
<rect x="0.136353" width="20.2128" height="23.4043" fill="#D9D9D9"/>
</mask>
<g mask="url(#mask0_2_355)">
<path d="M4.34732 20.4787C3.63145 20.4787 3.12262 20.109 2.82083 19.3695C2.51905 18.63 2.59274 17.9433 3.04191 17.3094L7.71611 10.727V4.87589H6.87392C6.63529 4.87589 6.43527 4.78244 6.27385 4.59553C6.11243 4.40862 6.03172 4.17701 6.03172 3.90071C6.03172 3.62441 6.11243 3.39281 6.27385 3.2059C6.43527 3.01899 6.63529 2.92554 6.87392 2.92554H13.6115C13.8501 2.92554 14.0501 3.01899 14.2116 3.2059C14.373 3.39281 14.4537 3.62441 14.4537 3.90071C14.4537 4.17701 14.373 4.40862 14.2116 4.59553C14.0501 4.78244 13.8501 4.87589 13.6115 4.87589H12.7693V10.727L17.4435 17.3094C17.8927 17.9433 17.9664 18.63 17.6646 19.3695C17.3628 20.109 16.854 20.4787 16.1381 20.4787H4.34732ZM6.03172 17.5532H14.4537L11.5902 13.6525H8.89519L6.03172 17.5532ZM4.34732 18.5284H16.1381L11.0849 11.4096V4.87589H9.40051V11.4096L4.34732 18.5284Z" fill="white"/>
</g>
</svg>
