<svg width="119" height="51" viewBox="0 0 119 51" fill="none" xmlns="http://www.w3.org/2000/svg">
<path fill-rule="evenodd" clip-rule="evenodd" d="M38.2607 36.6V43.8H48.1107V28.05H3.11074V36.6H38.2607ZM35.6107 1H28.4607V5.45H26.0607V1H18.9607V25.05H35.6107V1ZM10.0607 6.4H7.66074V2.5H0.510742V25.05H17.1607V2.5H10.0607V6.4ZM48.1107 26.3V0.5H38.2607V26.3H48.1107ZM28.4607 17.7H26.0607V12.75H28.4607V17.7ZM10.0607 13.7V17.7H7.66074V13.7H10.0607ZM72.291 11.6113V10.918H64.332V11.6113H67.8477V12.3438H65.2793V13.0176H70.377V13.6719H65.2891V15.7422H71.5391V15.0391H66.1973V14.3164H71.2949V12.3438H68.7656V11.6113H72.291ZM68.7656 7.8125V7.04102H67.8477V7.8125H65.123V8.52539H67.7793C67.584 9.26758 66.4023 9.78516 64.7227 9.87305L64.9863 10.5762C66.5195 10.4688 67.7598 10.0195 68.3066 9.24805C68.8535 10.0195 70.0938 10.4688 71.6172 10.5762L71.9004 9.87305C70.2061 9.78516 69.0195 9.26758 68.8438 8.52539H71.5V7.8125H68.7656ZM78.1602 11.1719C76.8418 10.7324 76.041 9.63867 76.0508 8.47656V7.5293H75.123V8.42774C75.1133 9.7168 74.3223 10.8691 72.9551 11.3477L73.4531 12.0996C74.4736 11.7139 75.2158 10.9473 75.6016 9.97071C75.9727 10.8594 76.6855 11.5674 77.6523 11.9141L78.1602 11.1719ZM80.2598 15.8301V12.7246H74.332V13.457H79.332V15.8301H80.2598ZM80.2598 12.2656V7.08008H79.332V8.84766H77.4863V9.60938H79.332V12.2656H80.2598ZM86.0703 13.1934C84.8594 12.5488 84.2246 11.1426 84.2246 9.76563V9.41406H85.7773V8.65235H84.2246V7.39258H83.3555V8.65235H81.7734V9.41406H83.3555V9.76563C83.3457 11.1816 82.7207 12.6758 81.5098 13.3789L82.0566 14.082C82.9014 13.5791 83.4873 12.6611 83.8047 11.5918C84.1172 12.5879 84.708 13.4277 85.5527 13.877L86.0703 13.1934ZM89.1172 15.8301V7.08008H88.2285V15.8301H89.1172ZM87.3398 15.3906V7.26563H86.4609V10.4883H85.2012V11.2598H86.4609V15.3906H87.3398ZM97.291 8.99414V7.92969H91.1973V8.69141H96.3926V8.99414C96.3913 9.10737 96.3904 9.22059 96.3895 9.33413C96.3868 9.67105 96.384 10.0107 96.373 10.3613L90.9531 10.5664L91.0703 11.3281L96.3242 11.0449C96.2754 11.6992 96.1777 12.4023 95.9922 13.2031L96.9102 13.291C97.291 11.4746 97.291 10.2734 97.291 8.99414ZM98.2285 14.6582V13.8965H90.25V14.6582H98.2285ZM105.709 10.625V7.08008H104.791V15.8301H105.709V11.3965H107.115V10.625H105.709ZM104.029 9.20899V8.44727H101.93V7.19727H101.002V8.44727H98.8438V9.20899H104.029ZM103.648 11.8848C103.639 10.6934 102.721 9.85352 101.471 9.85352C100.211 9.85352 99.293 10.6934 99.293 11.8848C99.293 13.0859 100.211 13.916 101.471 13.9258C102.721 13.916 103.639 13.0859 103.648 11.8848ZM100.182 11.8848C100.172 11.1328 100.729 10.6152 101.471 10.6152C102.213 10.6152 102.76 11.1328 102.76 11.8848C102.76 12.6465 102.213 13.1543 101.471 13.1445C100.729 13.1543 100.172 12.6465 100.182 11.8848ZM114.811 15.8301V7.08008H113.873V15.8301H114.811ZM108.111 14.2383C111.109 12.8027 112.203 10.5762 112.203 8.01758H108.043V8.75977H111.266C111.085 10.8008 109.952 12.3779 107.623 13.4863L108.111 14.2383ZM67.625 21.7031V20.7656H67.2656V21.7031H64.3203V22.0234H70.5781V21.7031H67.625ZM70.1953 20.9141C69.1406 20.8125 67.6562 20.25 67.6562 19.3516V19.2969H70V18.9844H64.8984V19.2969H67.2266V19.3516C67.2266 20.2578 65.7422 20.8125 64.7031 20.9141L64.8359 21.2188C65.8398 21.0938 67.0781 20.6445 67.4453 19.8438C67.8164 20.6406 69.0508 21.0938 70.0547 21.2188L70.1953 20.9141ZM69.9844 23.3984V23.0703H67.6328V22.3359H67.2656V23.0703H64.9219V23.3984H69.9844ZM69.4922 24.7188C69.4922 24.125 68.7656 23.8281 67.4453 23.8203C66.125 23.8281 65.4062 24.125 65.4062 24.7188C65.4062 25.3281 66.125 25.6328 67.4453 25.6328C68.7656 25.6328 69.4922 25.3281 69.4922 24.7188ZM65.7734 24.7188C65.7656 24.3281 66.3984 24.1172 67.4453 24.1094C68.4922 24.1172 69.125 24.3281 69.125 24.7188C69.125 25.125 68.4922 25.3516 67.4453 25.3516C66.3984 25.3516 65.7656 25.125 65.7734 24.7188ZM77.4688 22.7344V22.4141H71.2422V22.7344H77.4688ZM76.7891 25.4063V25.0859H72.4609V23.4297H72.0781V25.4063H76.7891ZM76.7266 20.3281C76.7266 19.4844 75.8125 18.9922 74.3516 18.9922C72.8906 18.9922 71.9766 19.4844 71.9766 20.3281C71.9766 21.1719 72.8906 21.6641 74.3516 21.6641C75.8125 21.6641 76.7266 21.1719 76.7266 20.3281ZM72.3516 20.3281C72.3516 19.7109 73.1562 19.3125 74.3516 19.3125C75.5469 19.3125 76.3516 19.7109 76.3516 20.3281C76.3516 20.9453 75.5469 21.3438 74.3516 21.3438C73.1562 21.3438 72.3516 20.9453 72.3516 20.3281ZM83.5078 24.3359C83.5078 23.5625 82.6797 23.1094 81.2969 23.1094C79.9062 23.1094 79.0703 23.5625 79.0781 24.3359C79.0703 25.1172 79.9062 25.5625 81.2969 25.5703C82.6797 25.5625 83.5078 25.1172 83.5078 24.3359ZM79.4375 24.3359C79.4297 23.7813 80.1719 23.4297 81.2969 23.4219C82.4219 23.4297 83.1562 23.7813 83.1562 24.3359C83.1562 24.8906 82.4219 25.25 81.2969 25.25C80.1719 25.25 79.4297 24.8906 79.4375 24.3359ZM83.4531 20.5469V18.7422H83.0859V22.9141H83.4531V20.875H84.5469V20.5469H83.4531ZM78.8672 20.3281V19.1641H78.5V22.2813H81.6094V19.1641H81.2422V20.3281H78.8672ZM81.2422 21.9609H78.8672V20.6406H81.2422V21.9609ZM85.8203 20.2734V19.0938H85.4453V22.1797H88.4531V20.8359H90.3047V22.4688H90.6719V18.7422H90.3047V20.5078H88.4531V19.0938H88.0859V20.2734H85.8203ZM88.0859 21.8594H85.8203V20.5938H88.0859V21.8594ZM86.7422 23.8125V22.8359H86.375V25.4766H90.6641V22.8359H90.3047V23.8125H86.7422ZM90.3047 25.1563H86.7422V24.125H90.3047V25.1563Z" fill="white"/>
<rect x="3" y="46" width="115" height="5" fill="url(#paint0_linear_1475_1616)"/>
<rect width="10.2911" height="17.9997" rx="1" transform="matrix(0.802539 0.5966 -0.586796 0.809735 107.736 24.2273)" fill="white"/>
<ellipse cx="108.125" cy="26.8011" rx="0.766913" ry="0.776306" transform="rotate(-10 108.125 26.8011)" fill="#323A45"/>
<ellipse cx="109.311" cy="27.6429" rx="0.255638" ry="0.258769" transform="rotate(-10 109.311 27.6429)" fill="#323A45"/>
<defs>
<linearGradient id="paint0_linear_1475_1616" x1="118" y1="46" x2="3" y2="46" gradientUnits="userSpaceOnUse">
<stop offset="0.475543" stop-color="#3CB0B8"/>
<stop offset="1" stop-color="#3CB0B8" stop-opacity="0"/>
</linearGradient>
</defs>
</svg>
