<svg width="495" height="621" viewBox="0 0 495 621" fill="none" xmlns="http://www.w3.org/2000/svg">
<rect x="3.05176e-05" width="495" height="621" fill="#303A46"/>
<g filter="url(#filter0_d_6_412)">
<rect width="245.976" height="428.635" rx="20" transform="matrix(0.710153 0.704047 -0.747301 0.664485 320.32 163)" fill="#FCFDFF"/>
</g>
<ellipse cx="313.66" cy="224.357" rx="21.8159" ry="20.9737" fill="#323A45"/>
<ellipse cx="313.66" cy="224.357" rx="16.3619" ry="15.7303" fill="white"/>
<ellipse cx="343.16" cy="253.404" rx="3.87838" ry="3.72867" fill="#323A45"/>
<path d="M141.61 152.825L141.649 131.513L37.6047 131.329L37.6502 106.021L170.85 106.256L170.766 152.876L141.61 152.825ZM112.83 26.0856L133.994 26.123L133.866 97.3109L84.5821 97.2238L84.71 26.0359L105.726 26.0731L105.702 39.245L112.806 39.2576L112.83 26.0856ZM51.2333 41.9608L58.3373 41.9733L58.358 30.4293L79.374 30.4665L79.2541 97.2144L29.9702 97.1273L30.0901 30.3794L51.2541 30.4168L51.2333 41.9608ZM170.997 24.7084L170.859 101.076L141.703 101.025L141.841 24.6569L170.997 24.7084ZM105.637 75.505L112.741 75.5175L112.767 60.8656L105.663 60.853L105.637 75.505ZM58.2772 75.4213L58.2985 63.5813L51.1945 63.5687L51.1732 75.4087L58.2772 75.4213Z" fill="white"/>
<rect width="18.1836" height="109.605" rx="2" transform="matrix(0.988982 0.130019 -0.141354 0.988141 261.464 39.8286)" fill="#F6F7F9"/>
<path d="M141.61 152.825L141.649 131.513L37.6047 131.329L37.6502 106.021L170.85 106.256L170.766 152.876L141.61 152.825ZM112.83 26.0856L133.994 26.123L133.866 97.3109L84.5821 97.2238L84.71 26.0359L105.726 26.0731L105.702 39.245L112.806 39.2576L112.83 26.0856ZM51.2333 41.9608L58.3373 41.9733L58.358 30.4293L79.374 30.4665L79.2541 97.2144L29.9702 97.1273L30.0901 30.3794L51.2541 30.4168L51.2333 41.9608ZM170.997 24.7084L170.859 101.076L141.703 101.025L141.841 24.6569L170.997 24.7084ZM105.637 75.505L112.741 75.5175L112.767 60.8656L105.663 60.853L105.637 75.505ZM58.2772 75.4213L58.2985 63.5813L51.1945 63.5687L51.1732 75.4087L58.2772 75.4213Z" fill="white"/>
<rect width="18.1836" height="109.605" rx="2" transform="matrix(0.988982 0.130019 -0.141354 0.988141 261.464 39.8286)" fill="#F6F7F9"/>
<rect width="18.1495" height="109.241" rx="2" transform="matrix(1.00031 0.00227505 -0.0319073 0.99909 224.12 24.6384)" fill="#F6F7F9"/>
<rect width="18.1489" height="15.6868" rx="2" transform="matrix(1.00022 0.0168784 -0.0187901 0.999457 220.469 142.539)" fill="#FCFDFF"/>
<rect width="18.1402" height="15.6956" rx="2" transform="matrix(0.992485 0.122363 -0.13608 0.990698 245.085 154.582)" fill="#FCFDFF"/>
<defs>
<filter id="filter0_d_6_412" x="4.53079" y="171.009" width="485.938" height="449.983" filterUnits="userSpaceOnUse" color-interpolation-filters="sRGB">
<feFlood flood-opacity="0" result="BackgroundImageFix"/>
<feColorMatrix in="SourceAlpha" type="matrix" values="0 0 0 0 0 0 0 0 0 0 0 0 0 0 0 0 0 0 127 0" result="hardAlpha"/>
<feOffset dy="4"/>
<feGaussianBlur stdDeviation="2"/>
<feComposite in2="hardAlpha" operator="out"/>
<feColorMatrix type="matrix" values="0 0 0 0 0 0 0 0 0 0 0 0 0 0 0 0 0 0 0.25 0"/>
<feBlend mode="normal" in2="BackgroundImageFix" result="effect1_dropShadow_6_412"/>
<feBlend mode="normal" in="SourceGraphic" in2="effect1_dropShadow_6_412" result="shape"/>
</filter>
</defs>
</svg>
