<svg width="188" height="228" viewBox="0 0 188 228" fill="none" xmlns="http://www.w3.org/2000/svg">
<g filter="url(#filter0_d_1563_1842)">
<rect x="4" width="180" height="220" rx="10" fill="#3CB0B8"/>
</g>
<rect x="14" y="20" width="160" height="180" rx="10" fill="#323A45"/>
<circle cx="75" cy="11" r="4" fill="#434F5E"/>
<rect x="87" y="7" width="30" height="8" rx="4" fill="#434F5E"/>
<path d="M22.0463 99.92H55.5663V104.28H22.0463V99.92ZM24.6063 74.72H52.8063V78.96H24.6063V74.72ZM24.7663 90.04H52.6863V94.32H24.7663V90.04ZM29.6463 78.64H34.9663V90.44H29.6463V78.64ZM42.4863 78.64H47.7663V90.44H42.4863V78.64ZM58.8431 100.16H92.3631V104.48H58.8431V100.16ZM72.8831 93.16H78.2031V101.92H72.8831V93.16ZM62.6031 73.92H88.6031V86.24H67.9631V92.48H62.6831V82.08H83.3231V78.12H62.6031V73.92ZM62.6831 90.36H89.4431V94.64H62.6831V90.36ZM110.92 80.68H116.72V84.96H110.92V80.68ZM114.88 72.24H119.84V93.92H114.88V72.24ZM102.12 77.08H106.24V79.44C106.24 85.64 103.8 91.44 97.8 93.84L95.12 89.72C100.08 87.76 102.12 83.56 102.12 79.44V77.08ZM103.12 77.08H107.24V79.44C107.24 83.4 109.16 87.24 113.8 89.08L111.2 93.16C105.4 90.92 103.12 85.4 103.12 79.44V77.08ZM96.28 74.16H112.64V78.4H96.28V74.16ZM122.12 71.52H127.16V94.08H122.12V71.52ZM101.72 95.44H127.16V108.56H121.88V99.68H101.72V95.44ZM136.357 90.6H162.397V94.76H136.357V90.6ZM132.437 100H165.957V104.32H132.437V100ZM136.357 74.2H162.077V78.48H141.757V91.76H136.357V74.2ZM140.117 82.36H161.237V86.48H140.117V82.36ZM63.9645 147.886V143.043L76.1094 123.909H80.2855V130.614H77.8139L70.1577 142.73V142.957H87.4162V147.886H63.9645ZM77.9276 153V146.409L78.0412 144.264V123.909H83.8082V153H77.9276ZM116.196 119.52H121.556V138.24H116.196V119.52ZM96.8363 139.88H121.556V149.92H102.116V153.64H96.9163V146.08H116.276V143.92H96.8363V139.88ZM96.9163 152.2H122.476V156.32H96.9163V152.2ZM99.4362 120.36H103.836V123.16C103.836 130 100.396 136.2 93.1563 138.4L90.5963 134.2C96.7963 132.32 99.4362 127.68 99.4362 123.16V120.36ZM100.516 120.36H104.876V123.16C104.876 127.56 107.476 131.88 113.516 133.6L110.956 137.72C103.836 135.64 100.516 129.84 100.516 123.16V120.36Z" fill="white"/>
<defs>
<filter id="filter0_d_1563_1842" x="0" y="0" width="188" height="228" filterUnits="userSpaceOnUse" color-interpolation-filters="sRGB">
<feFlood flood-opacity="0" result="BackgroundImageFix"/>
<feColorMatrix in="SourceAlpha" type="matrix" values="0 0 0 0 0 0 0 0 0 0 0 0 0 0 0 0 0 0 127 0" result="hardAlpha"/>
<feOffset dy="4"/>
<feGaussianBlur stdDeviation="2"/>
<feComposite in2="hardAlpha" operator="out"/>
<feColorMatrix type="matrix" values="0 0 0 0 0 0 0 0 0 0 0 0 0 0 0 0 0 0 0.25 0"/>
<feBlend mode="normal" in2="BackgroundImageFix" result="effect1_dropShadow_1563_1842"/>
<feBlend mode="normal" in="SourceGraphic" in2="effect1_dropShadow_1563_1842" result="shape"/>
</filter>
</defs>
</svg>
