<svg width="188" height="228" viewBox="0 0 188 228" fill="none" xmlns="http://www.w3.org/2000/svg">
<g filter="url(#filter0_d_1563_1841)">
<rect x="4" width="180" height="220" rx="10" fill="#3CB0B8" fill-opacity="0.866667" shape-rendering="crispEdges"/>
</g>
<rect x="14" y="20" width="160" height="180" rx="10" fill="#323A45"/>
<circle cx="75" cy="11" r="4" fill="#434F5E"/>
<rect x="87" y="7" width="30" height="8" rx="4" fill="#434F5E"/>
<path d="M22.0463 99.92H55.5663V104.28H22.0463V99.92ZM24.6063 74.72H52.8063V78.96H24.6063V74.72ZM24.7663 90.04H52.6863V94.32H24.7663V90.04ZM29.6463 78.64H34.9663V90.44H29.6463V78.64ZM42.4863 78.64H47.7663V90.44H42.4863V78.64ZM58.8431 100.16H92.3631V104.48H58.8431V100.16ZM72.8831 93.16H78.2031V101.92H72.8831V93.16ZM62.6031 73.92H88.6031V86.24H67.9631V92.48H62.6831V82.08H83.3231V78.12H62.6031V73.92ZM62.6831 90.36H89.4431V94.64H62.6831V90.36ZM110.92 80.68H116.72V84.96H110.92V80.68ZM114.88 72.24H119.84V93.92H114.88V72.24ZM102.12 77.08H106.24V79.44C106.24 85.64 103.8 91.44 97.8 93.84L95.12 89.72C100.08 87.76 102.12 83.56 102.12 79.44V77.08ZM103.12 77.08H107.24V79.44C107.24 83.4 109.16 87.24 113.8 89.08L111.2 93.16C105.4 90.92 103.12 85.4 103.12 79.44V77.08ZM96.28 74.16H112.64V78.4H96.28V74.16ZM122.12 71.52H127.16V94.08H122.12V71.52ZM101.72 95.44H127.16V108.56H121.88V99.68H101.72V95.44ZM136.357 90.6H162.397V94.76H136.357V90.6ZM132.437 100H165.957V104.32H132.437V100ZM136.357 74.2H162.077V78.48H141.757V91.76H136.357V74.2ZM140.117 82.36H161.237V86.48H140.117V82.36ZM75.5288 153.398C73.4076 153.398 71.5183 153.033 69.8612 152.304C68.2134 151.565 66.9113 150.552 65.9549 149.264C65.0079 147.967 64.5202 146.471 64.4918 144.776H70.685C70.7229 145.486 70.9549 146.111 71.381 146.651C71.8166 147.181 72.3943 147.593 73.114 147.886C73.8337 148.18 74.6433 148.327 75.543 148.327C76.4805 148.327 77.3091 148.161 78.0288 147.83C78.7485 147.498 79.3119 147.039 79.7191 146.452C80.1263 145.865 80.3299 145.187 80.3299 144.42C80.3299 143.644 80.1121 142.957 79.6765 142.361C79.2504 141.755 78.6348 141.281 77.8299 140.94C77.0344 140.599 76.0875 140.429 74.989 140.429H72.2759V135.912H74.989C75.917 135.912 76.7362 135.751 77.4464 135.429C78.1661 135.107 78.7248 134.662 79.1225 134.094C79.5202 133.516 79.7191 132.844 79.7191 132.077C79.7191 131.348 79.5439 130.708 79.1935 130.159C78.8526 129.6 78.3697 129.165 77.7447 128.852C77.1291 128.54 76.4094 128.384 75.5856 128.384C74.7522 128.384 73.9899 128.535 73.2987 128.838C72.6074 129.132 72.0534 129.553 71.6367 130.102C71.2201 130.652 70.9975 131.295 70.9691 132.034H65.0742C65.1026 130.358 65.5808 128.881 66.5089 127.602C67.4369 126.324 68.6869 125.325 70.2589 124.605C71.8403 123.876 73.6254 123.511 75.614 123.511C77.6216 123.511 79.3782 123.876 80.8839 124.605C82.3896 125.334 83.5591 126.319 84.3924 127.56C85.2352 128.791 85.6519 130.173 85.6424 131.707C85.6519 133.336 85.1452 134.695 84.1225 135.784C83.1093 136.873 81.7882 137.564 80.1594 137.858V138.085C82.2996 138.36 83.9284 139.103 85.0458 140.315C86.1727 141.518 86.7314 143.024 86.7219 144.832C86.7314 146.49 86.2532 147.962 85.2873 149.25C84.3308 150.538 83.0098 151.551 81.3242 152.29C79.6386 153.028 77.7068 153.398 75.5288 153.398ZM115.825 119.52H121.185V138.24H115.825V119.52ZM96.4652 139.88H121.185V149.92H101.745V153.64H96.5452V146.08H115.905V143.92H96.4652V139.88ZM96.5452 152.2H122.105V156.32H96.5452V152.2ZM99.0652 120.36H103.465V123.16C103.465 130 100.025 136.2 92.7852 138.4L90.2252 134.2C96.4252 132.32 99.0652 127.68 99.0652 123.16V120.36ZM100.145 120.36H104.505V123.16C104.505 127.56 107.105 131.88 113.145 133.6L110.585 137.72C103.465 135.64 100.145 129.84 100.145 123.16V120.36Z" fill="white"/>
<defs>
<filter id="filter0_d_1563_1841" x="0" y="0" width="188" height="228" filterUnits="userSpaceOnUse" color-interpolation-filters="sRGB">
<feFlood flood-opacity="0" result="BackgroundImageFix"/>
<feColorMatrix in="SourceAlpha" type="matrix" values="0 0 0 0 0 0 0 0 0 0 0 0 0 0 0 0 0 0 127 0" result="hardAlpha"/>
<feOffset dy="4"/>
<feGaussianBlur stdDeviation="2"/>
<feComposite in2="hardAlpha" operator="out"/>
<feColorMatrix type="matrix" values="0 0 0 0 0 0 0 0 0 0 0 0 0 0 0 0 0 0 0.25 0"/>
<feBlend mode="normal" in2="BackgroundImageFix" result="effect1_dropShadow_1563_1841"/>
<feBlend mode="normal" in="SourceGraphic" in2="effect1_dropShadow_1563_1841" result="shape"/>
</filter>
</defs>
</svg>
