<svg width="188" height="228" viewBox="0 0 188 228" fill="none" xmlns="http://www.w3.org/2000/svg">
<g filter="url(#filter0_d_1563_1842)">
<rect x="4" width="180" height="220" rx="10" fill="#DDDDDD" fill-opacity="0.866667" shape-rendering="crispEdges"/>
</g>
<rect x="14" y="20" width="160" height="180" rx="10" fill="#323A45"/>
<circle cx="75" cy="11" r="4" fill="#434F5E"/>
<rect x="87" y="7" width="30" height="8" rx="4" fill="#434F5E"/>
<path d="M22.0463 99.92H55.5663V104.28H22.0463V99.92ZM24.6063 74.72H52.8063V78.96H24.6063V74.72ZM24.7663 90.04H52.6863V94.32H24.7663V90.04ZM29.6463 78.64H34.9663V90.44H29.6463V78.64ZM42.4863 78.64H47.7663V90.44H42.4863V78.64ZM58.8431 100.16H92.3631V104.48H58.8431V100.16ZM72.8831 93.16H78.2031V101.92H72.8831V93.16ZM62.6031 73.92H88.6031V86.24H67.9631V92.48H62.6831V82.08H83.3231V78.12H62.6031V73.92ZM62.6831 90.36H89.4431V94.64H62.6831V90.36ZM110.92 80.68H116.72V84.96H110.92V80.68ZM114.88 72.24H119.84V93.92H114.88V72.24ZM102.12 77.08H106.24V79.44C106.24 85.64 103.8 91.44 97.8 93.84L95.12 89.72C100.08 87.76 102.12 83.56 102.12 79.44V77.08ZM103.12 77.08H107.24V79.44C107.24 83.4 109.16 87.24 113.8 89.08L111.2 93.16C105.4 90.92 103.12 85.4 103.12 79.44V77.08ZM96.28 74.16H112.64V78.4H96.28V74.16ZM122.12 71.52H127.16V94.08H122.12V71.52ZM101.72 95.44H127.16V108.56H121.88V99.68H101.72V95.44ZM136.357 90.6H162.397V94.76H136.357V90.6ZM132.437 100H165.957V104.32H132.437V100ZM136.357 74.2H162.077V78.48H141.757V91.76H136.357V74.2ZM140.117 82.36H161.237V86.48H140.117V82.36ZM75.6939 153.398C73.6863 153.398 71.8965 153.028 70.3246 152.29C68.7621 151.551 67.5215 150.533 66.603 149.236C65.6844 147.938 65.2062 146.452 65.1683 144.776H71.1342C71.2005 145.902 71.674 146.816 72.5547 147.517C73.4354 148.218 74.4818 148.568 75.6939 148.568C76.6598 148.568 77.5121 148.355 78.2507 147.929C78.9988 147.493 79.5812 146.892 79.9979 146.125C80.424 145.348 80.6371 144.458 80.6371 143.455C80.6371 142.432 80.4193 141.532 79.9837 140.756C79.5575 139.979 78.9657 139.373 78.2081 138.938C77.4505 138.502 76.584 138.279 75.6087 138.27C74.7564 138.27 73.9278 138.445 73.1229 138.795C72.3274 139.146 71.7071 139.624 71.2621 140.23L65.7933 139.25L67.1712 123.909H84.9553V128.938H72.2422L71.4893 136.224H71.6598C72.1712 135.505 72.9429 134.908 73.9751 134.435C75.0073 133.961 76.1626 133.724 77.4411 133.724C79.1929 133.724 80.7554 134.136 82.1286 134.96C83.5017 135.784 84.5859 136.916 85.3814 138.355C86.1768 139.785 86.5698 141.433 86.5604 143.298C86.5698 145.259 86.1153 147.001 85.1967 148.526C84.2876 150.041 83.014 151.234 81.3757 152.105C79.7469 152.967 77.853 153.398 75.6939 153.398ZM115.532 119.52H120.892V138.24H115.532V119.52ZM96.1722 139.88H120.892V149.92H101.452V153.64H96.2522V146.08H115.612V143.92H96.1722V139.88ZM96.2522 152.2H121.812V156.32H96.2522V152.2ZM98.7722 120.36H103.172V123.16C103.172 130 99.7322 136.2 92.4922 138.4L89.9322 134.2C96.1322 132.32 98.7722 127.68 98.7722 123.16V120.36ZM99.8522 120.36H104.212V123.16C104.212 127.56 106.812 131.88 112.852 133.6L110.292 137.72C103.172 135.64 99.8522 129.84 99.8522 123.16V120.36Z" fill="white"/>
<defs>
<filter id="filter0_d_1563_1842" x="0" y="0" width="188" height="228" filterUnits="userSpaceOnUse" color-interpolation-filters="sRGB">
<feFlood flood-opacity="0" result="BackgroundImageFix"/>
<feColorMatrix in="SourceAlpha" type="matrix" values="0 0 0 0 0 0 0 0 0 0 0 0 0 0 0 0 0 0 127 0" result="hardAlpha"/>
<feOffset dy="4"/>
<feGaussianBlur stdDeviation="2"/>
<feComposite in2="hardAlpha" operator="out"/>
<feColorMatrix type="matrix" values="0 0 0 0 0 0 0 0 0 0 0 0 0 0 0 0 0 0 0.25 0"/>
<feBlend mode="normal" in2="BackgroundImageFix" result="effect1_dropShadow_1563_1842"/>
<feBlend mode="normal" in="SourceGraphic" in2="effect1_dropShadow_1563_1842" result="shape"/>
</filter>
</defs>
</svg>
