<svg width="188" height="228" viewBox="0 0 188 228" fill="none" xmlns="http://www.w3.org/2000/svg">
<g filter="url(#filter0_d_1563_1840)">
<rect x="4" width="180" height="220" rx="10" fill="#3CB0B8" fill-opacity="0.866667" shape-rendering="crispEdges"/>
</g>
<rect x="14" y="20" width="160" height="180" rx="10" fill="#323A45"/>
<circle cx="75" cy="11" r="4" fill="#434F5E"/>
<rect x="87" y="7" width="30" height="8" rx="4" fill="#434F5E"/>
<path d="M22.0463 99.92H55.5663V104.28H22.0463V99.92ZM24.6063 74.72H52.8063V78.96H24.6063V74.72ZM24.7663 90.04H52.6863V94.32H24.7663V90.04ZM29.6463 78.64H34.9663V90.44H29.6463V78.64ZM42.4863 78.64H47.7663V90.44H42.4863V78.64ZM58.8431 100.16H92.3631V104.48H58.8431V100.16ZM72.8831 93.16H78.2031V101.92H72.8831V93.16ZM62.6031 73.92H88.6031V86.24H67.9631V92.48H62.6831V82.08H83.3231V78.12H62.6031V73.92ZM62.6831 90.36H89.4431V94.64H62.6831V90.36ZM110.92 80.68H116.72V84.96H110.92V80.68ZM114.88 72.24H119.84V93.92H114.88V72.24ZM102.12 77.08H106.24V79.44C106.24 85.64 103.8 91.44 97.8 93.84L95.12 89.72C100.08 87.76 102.12 83.56 102.12 79.44V77.08ZM103.12 77.08H107.24V79.44C107.24 83.4 109.16 87.24 113.8 89.08L111.2 93.16C105.4 90.92 103.12 85.4 103.12 79.44V77.08ZM96.28 74.16H112.64V78.4H96.28V74.16ZM122.12 71.52H127.16V94.08H122.12V71.52ZM101.72 95.44H127.16V108.56H121.88V99.68H101.72V95.44ZM136.357 90.6H162.397V94.76H136.357V90.6ZM132.437 100H165.957V104.32H132.437V100ZM136.357 74.2H162.077V78.48H141.757V91.76H136.357V74.2ZM140.117 82.36H161.237V86.48H140.117V82.36ZM65.3619 153V148.568L75.717 138.98C76.5977 138.128 77.3363 137.361 77.9329 136.679C78.5389 135.997 78.9982 135.33 79.3107 134.676C79.6232 134.013 79.7795 133.298 79.7795 132.531C79.7795 131.679 79.5853 130.945 79.1971 130.33C78.8088 129.705 78.2785 129.226 77.6062 128.895C76.9338 128.554 76.1715 128.384 75.3192 128.384C74.4291 128.384 73.6526 128.563 72.9897 128.923C72.3268 129.283 71.8155 129.799 71.4556 130.472C71.0958 131.144 70.9158 131.944 70.9158 132.872H65.0778C65.0778 130.969 65.5086 129.316 66.3704 127.915C67.2321 126.513 68.4395 125.429 69.9925 124.662C71.5456 123.895 73.3353 123.511 75.3619 123.511C77.4452 123.511 79.2586 123.881 80.8022 124.619C82.3552 125.348 83.5626 126.362 84.4244 127.659C85.2861 128.956 85.717 130.443 85.717 132.119C85.717 133.218 85.4992 134.302 85.0636 135.372C84.6374 136.442 83.8751 137.631 82.7766 138.938C81.6781 140.235 80.1299 141.793 78.1317 143.611L73.8846 147.773V147.972H86.1005V153H65.3619ZM115.239 119.52H120.599V138.24H115.239V119.52ZM95.8792 139.88H120.599V149.92H101.159V153.64H95.9592V146.08H115.319V143.92H95.8792V139.88ZM95.9592 152.2H121.519V156.32H95.9592V152.2ZM98.4792 120.36H102.879V123.16C102.879 130 99.4392 136.2 92.1992 138.4L89.6392 134.2C95.8392 132.32 98.4792 127.68 98.4792 123.16V120.36ZM99.5592 120.36H103.919V123.16C103.919 127.56 106.519 131.88 112.559 133.6L109.999 137.72C102.879 135.64 99.5592 129.84 99.5592 123.16V120.36Z" fill="white"/>
<defs>
<filter id="filter0_d_1563_1840" x="0" y="0" width="188" height="228" filterUnits="userSpaceOnUse" color-interpolation-filters="sRGB">
<feFlood flood-opacity="0" result="BackgroundImageFix"/>
<feColorMatrix in="SourceAlpha" type="matrix" values="0 0 0 0 0 0 0 0 0 0 0 0 0 0 0 0 0 0 127 0" result="hardAlpha"/>
<feOffset dy="4"/>
<feGaussianBlur stdDeviation="2"/>
<feComposite in2="hardAlpha" operator="out"/>
<feColorMatrix type="matrix" values="0 0 0 0 0 0 0 0 0 0 0 0 0 0 0 0 0 0 0.25 0"/>
<feBlend mode="normal" in2="BackgroundImageFix" result="effect1_dropShadow_1563_1840"/>
<feBlend mode="normal" in="SourceGraphic" in2="effect1_dropShadow_1563_1840" result="shape"/>
</filter>
</defs>
</svg>
