<svg width="188" height="228" viewBox="0 0 188 228" fill="none" xmlns="http://www.w3.org/2000/svg">
<g filter="url(#filter0_d_1563_1840)">
<rect x="4" width="180" height="220" rx="10" fill="#3CB0B8" fill-opacity="0.866667" shape-rendering="crispEdges"/>
</g>
<rect x="14" y="20" width="160" height="180" rx="10" fill="#323A45"/>
<circle cx="75" cy="11" r="4" fill="#434F5E"/>
<rect x="87" y="7" width="30" height="8" rx="4" fill="#434F5E"/>
<path d="M22.0463 99.92H55.5663V104.28H22.0463V99.92ZM24.6063 74.72H52.8063V78.96H24.6063V74.72ZM24.7663 90.04H52.6863V94.32H24.7663V90.04ZM29.6463 78.64H34.9663V90.44H29.6463V78.64ZM42.4863 78.64H47.7663V90.44H42.4863V78.64ZM58.8431 100.16H92.3631V104.48H58.8431V100.16ZM72.8831 93.16H78.2031V101.92H72.8831V93.16ZM62.6031 73.92H88.6031V86.24H67.9631V92.48H62.6831V82.08H83.3231V78.12H62.6031V73.92ZM62.6831 90.36H89.4431V94.64H62.6831V90.36ZM110.92 80.68H116.72V84.96H110.92V80.68ZM114.88 72.24H119.84V93.92H114.88V72.24ZM102.12 77.08H106.24V79.44C106.24 85.64 103.8 91.44 97.8 93.84L95.12 89.72C100.08 87.76 102.12 83.56 102.12 79.44V77.08ZM103.12 77.08H107.24V79.44C107.24 83.4 109.16 87.24 113.8 89.08L111.2 93.16C105.4 90.92 103.12 85.4 103.12 79.44V77.08ZM96.28 74.16H112.64V78.4H96.28V74.16ZM122.12 71.52H127.16V94.08H122.12V71.52ZM101.72 95.44H127.16V108.56H121.88V99.68H101.72V95.44ZM136.357 90.6H162.397V94.76H136.357V90.6ZM132.437 100H165.957V104.32H132.437V100ZM136.357 74.2H162.077V78.48H141.757V91.76H136.357V74.2ZM140.117 82.36H161.237V86.48H140.117V82.36ZM75.9212 153.398C74.425 153.388 72.9808 153.137 71.5888 152.645C70.2062 152.152 68.9657 151.352 67.8672 150.244C66.7687 149.136 65.8975 147.669 65.2536 145.841C64.6191 144.013 64.3018 141.769 64.3018 139.108C64.3113 136.665 64.5907 134.482 65.1399 132.56C65.6986 130.628 66.4941 128.99 67.5263 127.645C68.5679 126.3 69.8132 125.277 71.2621 124.577C72.7109 123.866 74.335 123.511 76.1342 123.511C78.0755 123.511 79.7895 123.89 81.2763 124.648C82.763 125.396 83.9562 126.414 84.8558 127.702C85.7649 128.99 86.3142 130.434 86.5036 132.034H80.4382C80.2015 131.021 79.7043 130.225 78.9467 129.648C78.1892 129.07 77.2517 128.781 76.1342 128.781C74.2403 128.781 72.8009 129.605 71.8161 131.253C70.8407 132.901 70.3435 135.14 70.3246 137.972H70.5234C70.959 137.11 71.5462 136.376 72.2848 135.77C73.0329 135.154 73.8804 134.686 74.8274 134.364C75.7839 134.032 76.7924 133.866 77.853 133.866C79.5765 133.866 81.1106 134.274 82.4553 135.088C83.8 135.893 84.8606 137.001 85.6371 138.412C86.4136 139.823 86.8018 141.437 86.8018 143.256C86.8018 145.225 86.3426 146.977 85.424 148.511C84.5149 150.045 83.2412 151.248 81.603 152.119C79.9742 152.981 78.0803 153.407 75.9212 153.398ZM75.8928 148.568C76.8397 148.568 77.6873 148.341 78.4354 147.886C79.1835 147.432 79.7706 146.816 80.1967 146.04C80.6229 145.263 80.8359 144.392 80.8359 143.426C80.8359 142.46 80.6229 141.594 80.1967 140.827C79.7801 140.06 79.2024 139.449 78.4638 138.994C77.7251 138.54 76.8823 138.312 75.9354 138.312C75.2251 138.312 74.567 138.445 73.9609 138.71C73.3643 138.975 72.8388 139.345 72.3842 139.818C71.9392 140.292 71.5888 140.841 71.3331 141.466C71.0774 142.081 70.9496 142.74 70.9496 143.44C70.9496 144.378 71.1626 145.235 71.5888 146.011C72.0244 146.788 72.6115 147.408 73.3501 147.872C74.0982 148.336 74.9458 148.568 75.8928 148.568ZM115.845 119.52H121.205V138.24H115.845V119.52ZM96.4847 139.88H121.205V149.92H101.765V153.64H96.5647V146.08H115.925V143.92H96.4847V139.88ZM96.5647 152.2H122.125V156.32H96.5647V152.2ZM99.0847 120.36H103.485V123.16C103.485 130 100.045 136.2 92.8047 138.4L90.2447 134.2C96.4447 132.32 99.0847 127.68 99.0847 123.16V120.36ZM100.165 120.36H104.525V123.16C104.525 127.56 107.125 131.88 113.165 133.6L110.605 137.72C103.485 135.64 100.165 129.84 100.165 123.16V120.36Z" fill="white"/>
<defs>
<filter id="filter0_d_1563_1840" x="0" y="0" width="188" height="228" filterUnits="userSpaceOnUse" color-interpolation-filters="sRGB">
<feFlood flood-opacity="0" result="BackgroundImageFix"/>
<feColorMatrix in="SourceAlpha" type="matrix" values="0 0 0 0 0 0 0 0 0 0 0 0 0 0 0 0 0 0 127 0" result="hardAlpha"/>
<feOffset dy="4"/>
<feGaussianBlur stdDeviation="2"/>
<feComposite in2="hardAlpha" operator="out"/>
<feColorMatrix type="matrix" values="0 0 0 0 0 0 0 0 0 0 0 0 0 0 0 0 0 0 0.25 0"/>
<feBlend mode="normal" in2="BackgroundImageFix" result="effect1_dropShadow_1563_1840"/>
<feBlend mode="normal" in="SourceGraphic" in2="effect1_dropShadow_1563_1840" result="shape"/>
</filter>
</defs>
</svg>
