<svg width="511" height="635" viewBox="0 0 511 635" fill="none" xmlns="http://www.w3.org/2000/svg">
<rect x="19" width="467" height="621" rx="10" fill="#303A46"/>
<g filter="url(#filter0_d_589_2)">
<rect width="258.788" height="450" rx="20" transform="matrix(0.69616 0.717887 -0.734142 0.678995 330.364 143)" fill="#FCFDFF"/>
</g>
<circle cx="331.505" cy="200.509" r="22.5" fill="#323A45"/>
<ellipse cx="331.505" cy="200.509" rx="16.875" ry="16.875" fill="white"/>
<circle cx="363" cy="232" r="4" fill="#323A45"/>
<path d="M159.702 152.834L159.739 131.522L55.6953 131.33L55.7389 106.022L188.939 106.267L188.858 152.887L159.702 152.834ZM130.913 26.0923L152.077 26.1313L151.954 97.3192L102.67 97.2284L102.793 26.0405L123.809 26.0792L123.786 39.2512L130.89 39.2643L130.913 26.0923ZM69.3174 41.9629L76.4214 41.976L76.4413 30.432L97.4572 30.4707L97.3422 97.2186L48.0582 97.1278L48.1733 30.3799L69.3373 30.4189L69.3174 41.9629ZM189.079 24.7195L188.948 101.087L159.792 101.034L159.923 24.6658L189.079 24.7195ZM123.724 75.5112L130.828 75.5243L130.853 60.8723L123.749 60.8592L123.724 75.5112ZM76.3637 75.4239L76.3841 63.5839L69.2801 63.5709L69.2597 75.4108L76.3637 75.4239Z" fill="white"/>
<rect width="17.4616" height="109.518" rx="2" transform="matrix(0.988261 0.135394 -0.135751 0.988926 269.899 39.8286)" fill="#F6F7F9"/>
<rect width="17.4162" height="109.237" rx="2" transform="matrix(1.00031 0.00237085 -0.0306194 0.99913 234.064 24.6384)" fill="#F6F7F9"/>
<rect width="17.4158" height="15.6866" rx="2" transform="matrix(1.0002 0.0175889 -0.0180311 0.999471 230.561 142.539)" fill="#FCFDFF"/>
<rect width="17.4185" height="15.6841" rx="2" transform="matrix(0.991847 0.127433 -0.130678 0.991425 254.182 154.582)" fill="#FCFDFF"/>
<defs>
<filter id="filter0_d_589_2" x="4.37134" y="151.175" width="501.779" height="482.978" filterUnits="userSpaceOnUse" color-interpolation-filters="sRGB">
<feFlood flood-opacity="0" result="BackgroundImageFix"/>
<feColorMatrix in="SourceAlpha" type="matrix" values="0 0 0 0 0 0 0 0 0 0 0 0 0 0 0 0 0 0 127 0" result="hardAlpha"/>
<feOffset dy="4"/>
<feGaussianBlur stdDeviation="2"/>
<feComposite in2="hardAlpha" operator="out"/>
<feColorMatrix type="matrix" values="0 0 0 0 0 0 0 0 0 0 0 0 0 0 0 0 0 0 0.25 0"/>
<feBlend mode="normal" in2="BackgroundImageFix" result="effect1_dropShadow_589_2"/>
<feBlend mode="normal" in="SourceGraphic" in2="effect1_dropShadow_589_2" result="shape"/>
</filter>
</defs>
</svg>
